<svg xmlns="http://www.w3.org/2000/svg" viewBox="0 0 64 64">
  <!-- The site's crest (a shield with three stars and four bars) in white on a royal-blue
       gradient. Traced from the owner's artwork with potrace. -->
  <defs>
    <linearGradient id="g" x1="0" y1="0" x2="1" y2="1">
      <stop offset="0" stop-color="#2f6bff"/>
      <stop offset="0.55" stop-color="#0026b4"/>
      <stop offset="1" stop-color="#001778"/>
    </linearGradient>
  </defs>
  <rect width="64" height="64" rx="15" fill="url(#g)"/>
  <g transform="translate(11.221 8.320) scale(0.039467)">
    <g transform="translate(0 1200) scale(0.1 -0.1)" fill="#fff">
      <path d="M5125 11951 c-66 -27 -255 -107 -420 -179 -485 -209 -1164 -466 -1577 -596 -513 -162 -1141 -297 -1673 -360 -278 -33 -738 -64 -1104 -75 -235 -7 -244 -8 -261 -29 -50 -61 -58 -209 -65 -1212 -7 -875 0 -1257 30 -1635 8 -99 19 -274 25 -390 11 -228 14 -257 66 -724 143 -1283 388 -2247 768 -3026 422 -864 1107 -1637 2131 -2404 557 -418 1111 -766 1750 -1100 305 -160 410 -210 456 -217 40 -6 132 29 289 113 58 30 191 101 295 156 587 310 1280 756 1790 1151 685 531 1270 1135 1652 1706 364 544 624 1166 822 1965 175 711 307 1628 361 2525 6 96 18 281 28 410 14 198 17 390 16 1225 0 965 -9 1302 -35 1408 -6 20 -20 44 -32 51 -25 17 -167 28 -677 51 -581 27 -910 65 -1383 160 -725 146 -1651 457 -2652 890 -148 65 -286 123 -305 130 -19 8 -60 23 -90 34 -30 12 -62 21 -70 21 -8 0 -69 -22 -135 -49z m310 -1711 c87 -228 160 -418 164 -421 3 -4 177 -14 386 -24 209 -9 416 -20 460 -24 l80 -6 -305 -245 c-415 -333 -415 -332 -414 -344 1 -12 141 -532 200 -745 19 -68 33 -127 32 -132 -2 -5 -172 102 -378 237 -206 135 -380 248 -387 251 -7 3 -184 -108 -395 -246 -210 -137 -384 -248 -386 -246 -3 3 103 401 209 785 24 86 26 107 16 115 -8 6 -170 136 -362 290 l-348 280 79 6 c43 4 250 15 459 24 209 10 383 20 386 24 4 3 46 110 94 236 48 127 121 317 161 424 41 107 74 197 74 200 1 16 29 -54 175 -439z m-3156 -386 c43 -115 93 -246 110 -290 l32 -82 82 -6 c45 -3 186 -11 312 -17 127 -6 231 -12 232 -13 1 -1 -108 -91 -243 -200 -180 -145 -243 -202 -240 -215 15 -47 156 -567 156 -575 0 -14 -19 -3 -266 159 -131 87 -246 159 -254 161 -8 2 -130 -72 -270 -164 -140 -93 -256 -165 -258 -161 -2 4 33 139 77 300 52 191 77 297 71 304 -6 7 -116 97 -246 201 -129 104 -229 190 -222 191 7 1 148 9 312 18 165 8 303 18 306 22 4 5 56 137 116 295 59 158 110 286 111 284 1 -1 38 -96 82 -212z m6143 -9 c33 -88 77 -206 99 -261 l40 -102 82 -6 c45 -3 186 -11 312 -17 127 -6 231 -12 232 -13 2 -1 -105 -89 -237 -195 -132 -106 -242 -195 -244 -199 -3 -5 31 -140 76 -301 44 -161 77 -295 74 -298 -3 -3 -111 64 -240 148 -129 85 -245 160 -259 168 -22 13 -36 6 -283 -156 -142 -93 -260 -165 -261 -159 -2 6 33 141 76 301 51 184 76 294 70 301 -5 6 -115 96 -244 199 -129 104 -234 190 -232 191 1 1 106 7 232 13 127 6 267 14 312 17 l82 6 40 102 c22 55 67 173 100 261 33 88 66 174 72 192 l13 32 14 -32 c7 -18 41 -104 74 -192z m-6240 -2482 c15 -7 36 -25 45 -40 17 -26 18 -120 15 -1767 -2 -1232 -6 -1744 -14 -1753 -15 -18 -42 -16 -67 5 -38 32 -222 382 -319 607 -209 488 -347 994 -471 1730 -63 376 -86 538 -111 800 -6 61 -20 160 -32 220 -25 133 -21 181 20 196 50 20 235 26 572 21 257 -4 341 -8 362 -19z m2450 0 c20 -8 39 -22 43 -31 11 -29 7 -5670 -4 -5691 -9 -15 -17 -18 -43 -12 -52 12 -87 33 -353 209 -328 216 -451 304 -560 397 -175 150 -225 227 -245 375 -9 63 -12 675 -11 2379 1 1261 4 2304 7 2316 8 33 91 66 189 76 44 4 274 5 510 2 343 -4 437 -8 467 -20z m2350 -2 c57 -21 69 -29 78 -55 15 -47 16 -4619 1 -4711 -7 -38 -22 -92 -35 -120 -61 -134 -292 -328 -720 -604 -71 -46 -163 -108 -204 -137 -77 -55 -157 -98 -203 -109 -21 -5 -27 -1 -37 20 -17 36 -19 5654 -2 5685 28 52 57 55 593 55 l462 0 67 -24z m2294 4 c42 -17 50 -61 30 -168 -9 -45 -27 -183 -41 -307 -59 -519 -188 -1241 -296 -1650 -104 -392 -219 -704 -384 -1042 -165 -337 -209 -408 -255 -408 -11 0 -24 9 -30 20 -8 15 -11 529 -11 1757 1 1907 -4 1770 59 1794 54 21 204 27 547 22 250 -4 359 -9 381 -18z"/>
    </g>
  </g>
</svg>
